<svg version="1.1" id="Layer_1" xmlns="http://www.w3.org/2000/svg" xmlns:xlink="http://www.w3.org/1999/xlink" x="0px" y="0px"
	 width="100%" viewBox="0 0 1501 1501" enable-background="new 0 0 1501 1501" xml:space="preserve">
<path fill="#FFFFFF" opacity="1.000000" stroke="none" 
	d="
M801.000000,1502.000000 
	C534.000061,1502.000000 267.500092,1502.000000 1.000107,1502.000000 
	C1.000072,1001.666809 1.000072,501.333618 1.000036,1.000309 
	C501.333099,1.000206 1001.666199,1.000206 1501.999512,1.000103 
	C1501.999634,501.333008 1501.999634,1001.666016 1501.999756,1501.999512 
	C1268.500000,1502.000000 1035.000000,1502.000000 801.000000,1502.000000 
M754.500000,1337.000000 
	C945.331360,1337.000000 1136.162720,1337.000122 1326.994019,1336.999146 
	C1328.493896,1336.999146 1330.031128,1337.200439 1331.487793,1336.945801 
	C1346.328979,1334.351562 1360.951172,1331.303467 1374.964966,1325.212891 
	C1390.688965,1318.379028 1404.850830,1309.375854 1417.414795,1297.945312 
	C1433.428833,1283.375854 1445.789429,1266.079834 1454.482910,1246.132080 
	C1461.979858,1228.929565 1466.816284,1210.943970 1466.833008,1192.344971 
	C1467.076172,920.515869 1467.026123,648.686462 1466.956421,376.857178 
	C1466.949951,351.765472 1466.609131,326.665375 1465.832397,301.587463 
	C1465.598755,294.043915 1463.591431,286.513580 1461.995483,279.063110 
	C1459.124146,265.659393 1453.507324,253.260361 1446.729614,241.467499 
	C1437.073853,224.667480 1424.661255,210.022690 1409.318359,198.165161 
	C1398.549072,189.842255 1386.975098,182.716446 1374.218506,177.564819 
	C1358.115845,171.061935 1341.563965,166.114288 1324.192505,166.107819 
	C944.531494,165.966476 564.870422,165.979416 185.209442,166.123703 
	C176.110657,166.127167 166.897186,167.365250 157.934860,169.067886 
	C125.763519,175.179764 98.769653,190.622101 76.587029,214.794052 
	C65.120552,227.288834 55.962074,241.107758 49.039436,256.549042 
	C40.376480,275.872223 36.151119,296.286865 36.136478,317.216705 
	C35.934414,606.045593 35.967190,894.874695 36.128384,1183.703613 
	C36.134396,1194.475342 37.061020,1205.445190 39.228432,1215.979126 
	C45.298222,1245.479004 59.153210,1271.178589 80.285820,1292.648193 
	C94.825584,1307.420044 111.857140,1318.909424 131.178070,1326.520142 
	C148.084381,1333.179565 165.607086,1337.076050 184.008484,1337.065674 
	C373.838928,1336.958740 563.669495,1337.000000 754.500000,1337.000000 
z"/>
<path fill="#5F224A" opacity="1.000000" stroke="none" 
	d="
M754.000000,1337.000000 
	C563.669495,1337.000000 373.838928,1336.958740 184.008484,1337.065674 
	C165.607086,1337.076050 148.084381,1333.179565 131.178070,1326.520142 
	C111.857140,1318.909424 94.825584,1307.420044 80.285820,1292.648193 
	C59.153210,1271.178589 45.298222,1245.479004 39.228432,1215.979126 
	C37.061020,1205.445190 36.134396,1194.475342 36.128384,1183.703613 
	C35.967190,894.874695 35.934414,606.045593 36.136478,317.216705 
	C36.151119,296.286865 40.376480,275.872223 49.039436,256.549042 
	C55.962074,241.107758 65.120552,227.288834 76.587029,214.794052 
	C98.769653,190.622101 125.763519,175.179764 157.934860,169.067886 
	C166.897186,167.365250 176.110657,166.127167 185.209442,166.123703 
	C564.870422,165.979416 944.531494,165.966476 1324.192505,166.107819 
	C1341.563965,166.114288 1358.115845,171.061935 1374.218506,177.564819 
	C1386.975098,182.716446 1398.549072,189.842255 1409.318359,198.165161 
	C1424.661255,210.022690 1437.073853,224.667480 1446.729614,241.467499 
	C1453.507324,253.260361 1459.124146,265.659393 1461.995483,279.063110 
	C1463.591431,286.513580 1465.598755,294.043915 1465.832397,301.587463 
	C1466.609131,326.665375 1466.949951,351.765472 1466.956421,376.857178 
	C1467.026123,648.686462 1467.076172,920.515869 1466.833008,1192.344971 
	C1466.816284,1210.943970 1461.979858,1228.929565 1454.482910,1246.132080 
	C1445.789429,1266.079834 1433.428833,1283.375854 1417.414795,1297.945312 
	C1404.850830,1309.375854 1390.688965,1318.379028 1374.964966,1325.212891 
	C1360.951172,1331.303467 1346.328979,1334.351562 1331.487793,1336.945801 
	C1330.031128,1337.200439 1328.493896,1336.999146 1326.994019,1336.999146 
	C1136.162720,1337.000122 945.331360,1337.000000 754.000000,1337.000000 
M945.942139,819.205322 
	C947.307434,810.517517 948.515503,801.801453 950.068237,793.147278 
	C954.311157,769.498535 958.626587,745.861816 963.165344,722.268860 
	C963.537537,720.334167 965.555298,717.608276 967.258789,717.218567 
	C977.690308,714.832031 988.255493,713.032837 998.769165,711.001709 
	C1019.636230,706.970459 1040.517944,703.011719 1061.357788,698.843445 
	C1082.180298,694.678467 1102.939575,690.197021 1123.762329,686.033203 
	C1144.602539,681.865906 1165.509399,678.031921 1186.346313,673.848328 
	C1212.092773,668.678955 1237.808228,663.353638 1263.516113,657.995117 
	C1285.783569,653.353699 1302.340088,641.028748 1313.490967,621.120422 
	C1322.885864,604.347473 1322.832275,585.510010 1325.950317,567.365234 
	C1327.660889,557.410767 1328.828247,547.363831 1330.305786,537.368164 
	C1331.829468,527.061340 1333.472534,516.772217 1334.988403,506.464264 
	C1336.458618,496.466034 1337.400757,486.367493 1339.374146,476.472412 
	C1341.304077,466.794922 1341.875732,457.112152 1339.692383,447.647064 
	C1335.549438,429.687042 1326.781860,414.274506 1311.624634,403.180664 
	C1292.524658,389.201019 1271.342773,384.294189 1248.469849,391.130524 
	C1222.620728,398.856415 1204.943848,415.757416 1197.731567,441.994934 
	C1194.345459,454.313110 1192.989502,467.212372 1191.054077,479.900269 
	C1188.770386,494.870728 1186.855103,509.897400 1184.775635,524.931702 
	C1171.141724,527.657959 1157.786011,530.345276 1144.423096,532.996521 
	C1127.081177,536.437378 1109.727539,539.819275 1092.390015,543.282043 
	C1072.992065,547.156433 1053.604980,551.085938 1034.215698,555.004272 
	C1016.734009,558.537170 999.262695,562.121399 981.774292,565.620667 
	C964.279846,569.121155 946.768127,572.534973 929.267456,576.004578 
	C911.927002,579.442444 894.586792,582.881897 877.254089,586.358276 
	C858.017944,590.216492 838.789734,594.113892 819.559265,598.000488 
	C801.919006,601.565613 784.311157,605.302917 766.624695,608.621277 
	C760.262085,609.815125 753.575012,611.157104 747.277893,610.405396 
	C736.374695,609.103821 725.672974,606.156738 714.863464,604.017273 
	C695.767151,600.237671 676.636902,596.628479 657.551514,592.795166 
	C638.480347,588.964600 619.461487,584.873657 600.392273,581.033081 
	C583.855957,577.702759 567.276672,574.586304 550.724731,571.333008 
	C531.627197,567.579468 512.539856,563.774475 493.446228,560.001099 
	C476.101562,556.573364 458.743927,553.210266 441.411041,549.724060 
	C420.589966,545.536316 399.802948,541.178711 378.975311,537.024292 
	C360.045319,533.248474 341.058014,529.754028 322.170258,525.782166 
	C320.499451,525.430786 318.565094,522.634216 318.157867,520.680481 
	C317.028961,515.264709 316.771057,509.674652 315.938843,504.188354 
	C313.351501,487.131470 310.401154,470.125763 308.065338,453.035492 
	C304.567017,427.439850 291.321655,408.505005 268.802032,396.573883 
	C253.977112,388.719421 237.909882,386.074371 221.067459,389.934967 
	C202.923050,394.093933 187.981628,403.112000 177.027023,418.183105 
	C166.606323,432.519684 161.208847,448.515778 163.031982,466.451294 
	C163.956818,475.549408 165.102966,484.629272 166.356140,493.688721 
	C167.783707,504.008972 169.474594,514.292542 170.990814,524.600830 
	C172.461243,534.597961 173.807068,544.613525 175.296341,554.607727 
	C176.807602,564.749268 178.596252,574.851929 179.957977,585.012573 
	C181.773132,598.556274 183.918121,611.901794 191.326370,623.849121 
	C200.434769,638.538330 212.557129,650.092468 229.148529,654.771545 
	C248.589905,660.254333 268.575165,663.855469 288.391785,667.946899 
	C306.028870,671.588318 323.778717,674.680115 341.440765,678.205078 
	C362.265961,682.361389 383.033325,686.807190 403.857056,690.971130 
	C424.695953,695.138123 445.586945,699.044373 466.430542,703.188354 
	C490.919281,708.057068 515.371277,713.111084 539.868164,717.937561 
	C542.996094,718.553894 545.232361,719.356567 545.551147,722.976929 
	C545.909241,727.044006 546.400391,731.110901 547.080139,735.136230 
	C550.002625,752.441711 553.119690,769.714844 555.961914,787.033264 
	C558.150513,800.368713 559.899414,813.776306 562.088074,827.111755 
	C564.930420,844.430176 568.144897,861.687744 570.956970,879.010803 
	C573.487488,894.599854 575.583618,910.259033 578.066895,925.856140 
	C580.930481,943.841980 584.754333,961.711487 586.743286,979.787598 
	C588.178894,992.834167 590.755371,1005.409241 595.022522,1017.722534 
	C601.787170,1037.242310 612.682251,1054.302979 626.817444,1069.196533 
	C640.664917,1083.786865 657.006836,1094.968628 675.547974,1102.956665 
	C692.318481,1110.181763 709.897949,1114.425171 727.986938,1114.772827 
	C749.152832,1115.179688 770.395813,1116.271484 791.541199,1113.098877 
	C804.459534,1111.160522 816.936462,1107.874634 828.780762,1102.563599 
	C850.125732,1092.992432 868.368958,1079.315186 883.451294,1061.212402 
	C897.758484,1044.039917 907.920288,1024.774536 912.776428,1003.177673 
	C917.154724,983.705872 919.633911,963.808655 923.002808,944.107971 
	C926.316711,924.729675 929.563782,905.338501 933.081970,885.996948 
	C937.089233,863.966370 941.363892,841.984436 945.942139,819.205322 
z"/>
<path fill="#FFFFFF" opacity="1.000000" stroke="none" 
	d="
M945.732300,819.593323 
	C941.363892,841.984436 937.089233,863.966370 933.081970,885.996948 
	C929.563782,905.338501 926.316711,924.729675 923.002808,944.107971 
	C919.633911,963.808655 917.154724,983.705872 912.776428,1003.177673 
	C907.920288,1024.774536 897.758484,1044.039917 883.451294,1061.212402 
	C868.368958,1079.315186 850.125732,1092.992432 828.780762,1102.563599 
	C816.936462,1107.874634 804.459534,1111.160522 791.541199,1113.098877 
	C770.395813,1116.271484 749.152832,1115.179688 727.986938,1114.772827 
	C709.897949,1114.425171 692.318481,1110.181763 675.547974,1102.956665 
	C657.006836,1094.968628 640.664917,1083.786865 626.817444,1069.196533 
	C612.682251,1054.302979 601.787170,1037.242310 595.022522,1017.722534 
	C590.755371,1005.409241 588.178894,992.834167 586.743286,979.787598 
	C584.754333,961.711487 580.930481,943.841980 578.066895,925.856140 
	C575.583618,910.259033 573.487488,894.599854 570.956970,879.010803 
	C568.144897,861.687744 564.930420,844.430176 562.088074,827.111755 
	C559.899414,813.776306 558.150513,800.368713 555.961914,787.033264 
	C553.119690,769.714844 550.002625,752.441711 547.080139,735.136230 
	C546.400391,731.110901 545.909241,727.044006 545.551147,722.976929 
	C545.232361,719.356567 542.996094,718.553894 539.868164,717.937561 
	C515.371277,713.111084 490.919281,708.057068 466.430542,703.188354 
	C445.586945,699.044373 424.695953,695.138123 403.857056,690.971130 
	C383.033325,686.807190 362.265961,682.361389 341.440765,678.205078 
	C323.778717,674.680115 306.028870,671.588318 288.391785,667.946899 
	C268.575165,663.855469 248.589905,660.254333 229.148529,654.771545 
	C212.557129,650.092468 200.434769,638.538330 191.326370,623.849121 
	C183.918121,611.901794 181.773132,598.556274 179.957977,585.012573 
	C178.596252,574.851929 176.807602,564.749268 175.296341,554.607727 
	C173.807068,544.613525 172.461243,534.597961 170.990814,524.600830 
	C169.474594,514.292542 167.783707,504.008972 166.356140,493.688721 
	C165.102966,484.629272 163.956818,475.549408 163.031982,466.451294 
	C161.208847,448.515778 166.606323,432.519684 177.027023,418.183105 
	C187.981628,403.112000 202.923050,394.093933 221.067459,389.934967 
	C237.909882,386.074371 253.977112,388.719421 268.802032,396.573883 
	C291.321655,408.505005 304.567017,427.439850 308.065338,453.035492 
	C310.401154,470.125763 313.351501,487.131470 315.938843,504.188354 
	C316.771057,509.674652 317.028961,515.264709 318.157867,520.680481 
	C318.565094,522.634216 320.499451,525.430786 322.170258,525.782166 
	C341.058014,529.754028 360.045319,533.248474 378.975311,537.024292 
	C399.802948,541.178711 420.589966,545.536316 441.411041,549.724060 
	C458.743927,553.210266 476.101562,556.573364 493.446228,560.001099 
	C512.539856,563.774475 531.627197,567.579468 550.724731,571.333008 
	C567.276672,574.586304 583.855957,577.702759 600.392273,581.033081 
	C619.461487,584.873657 638.480347,588.964600 657.551514,592.795166 
	C676.636902,596.628479 695.767151,600.237671 714.863464,604.017273 
	C725.672974,606.156738 736.374695,609.103821 747.277893,610.405396 
	C753.575012,611.157104 760.262085,609.815125 766.624695,608.621277 
	C784.311157,605.302917 801.919006,601.565613 819.559265,598.000488 
	C838.789734,594.113892 858.017944,590.216492 877.254089,586.358276 
	C894.586792,582.881897 911.927002,579.442444 929.267456,576.004578 
	C946.768127,572.534973 964.279846,569.121155 981.774292,565.620667 
	C999.262695,562.121399 1016.734009,558.537170 1034.215698,555.004272 
	C1053.604980,551.085938 1072.992065,547.156433 1092.390015,543.282043 
	C1109.727539,539.819275 1127.081177,536.437378 1144.423096,532.996521 
	C1157.786011,530.345276 1171.141724,527.657959 1184.775635,524.931702 
	C1186.855103,509.897400 1188.770386,494.870728 1191.054077,479.900269 
	C1192.989502,467.212372 1194.345459,454.313110 1197.731567,441.994934 
	C1204.943848,415.757416 1222.620728,398.856415 1248.469849,391.130524 
	C1271.342773,384.294189 1292.524658,389.201019 1311.624634,403.180664 
	C1326.781860,414.274506 1335.549438,429.687042 1339.692383,447.647064 
	C1341.875732,457.112152 1341.304077,466.794922 1339.374146,476.472412 
	C1337.400757,486.367493 1336.458618,496.466034 1334.988403,506.464264 
	C1333.472534,516.772217 1331.829468,527.061340 1330.305786,537.368164 
	C1328.828247,547.363831 1327.660889,557.410767 1325.950317,567.365234 
	C1322.832275,585.510010 1322.885864,604.347473 1313.490967,621.120422 
	C1302.340088,641.028748 1285.783569,653.353699 1263.516113,657.995117 
	C1237.808228,663.353638 1212.092773,668.678955 1186.346313,673.848328 
	C1165.509399,678.031921 1144.602539,681.865906 1123.762329,686.033203 
	C1102.939575,690.197021 1082.180298,694.678467 1061.357788,698.843445 
	C1040.517944,703.011719 1019.636230,706.970459 998.769165,711.001709 
	C988.255493,713.032837 977.690308,714.832031 967.258789,717.218567 
	C965.555298,717.608276 963.537537,720.334167 963.165344,722.268860 
	C958.626587,745.861816 954.311157,769.498535 950.068237,793.147278 
	C948.515503,801.801453 947.307434,810.517517 945.732300,819.593323 
M798.007324,813.616882 
	C798.356384,811.364929 798.639221,809.100403 799.065002,806.863037 
	C802.697815,787.774475 806.356567,768.690735 810.050354,749.381775 
	C809.249329,749.235107 808.594910,748.927124 808.022705,749.039124 
	C800.710022,750.470703 793.432922,752.095337 786.099670,753.407654 
	C775.072876,755.380981 763.999634,758.659668 752.963196,758.592407 
	C740.908325,758.518982 728.860901,755.339417 716.833740,753.370239 
	C710.673645,752.361633 704.564880,751.039978 697.736572,749.725769 
	C709.610657,822.890686 721.352478,895.240967 733.217957,968.352783 
	C745.165894,968.352783 757.968384,968.352783 769.978516,968.352783 
	C779.329651,917.010071 788.664856,865.755066 798.007324,813.616882 
z"/>
<path fill="#5F224A" opacity="1.000000" stroke="none" 
	d="
M798.003662,814.058472 
	C788.664856,865.755066 779.329651,917.010071 769.978516,968.352783 
	C757.968384,968.352783 745.165894,968.352783 733.217957,968.352783 
	C721.352478,895.240967 709.610657,822.890686 697.736572,749.725769 
	C704.564880,751.039978 710.673645,752.361633 716.833740,753.370239 
	C728.860901,755.339417 740.908325,758.518982 752.963196,758.592407 
	C763.999634,758.659668 775.072876,755.380981 786.099670,753.407654 
	C793.432922,752.095337 800.710022,750.470703 808.022705,749.039124 
	C808.594910,748.927124 809.249329,749.235107 810.050354,749.381775 
	C806.356567,768.690735 802.697815,787.774475 799.065002,806.863037 
	C798.639221,809.100403 798.356384,811.364929 798.003662,814.058472 
z"/>
</svg>