<svg viewBox="5.5 5.7 50.38557000000001 50.37735849056604" fill="none" xmlns="http://www.w3.org/2000/svg" style="max-height: 500px" width="50.38557000000001" height="50.37735849056604">
<path fill="black" d="M55.5 30.7002C55.5 44.5073 44.3071 55.7002 30.5 55.7002C16.6929 55.7002 5.5 44.5073 5.5 30.7002C5.5 16.8931 16.6929 5.7002 30.5 5.7002C44.3071 5.7002 55.5 16.8931 55.5 30.7002Z"/>
<path fill="#00A7E1" d="M30.5013 28.5547L35.1355 38.8521C35.3738 39.5655 35.8469 39.8048 36.4427 39.8048H40.8405C41.7908 39.8048 42.1458 39.2105 41.7908 38.3784L34.3029 21.7384C34.0656 21.0269 33.5894 20.7881 32.9961 20.7881H28.0055C27.4102 20.7881 26.9356 21.0269 26.6968 21.7384L19.2098 38.3784C18.8533 39.2105 19.2098 39.8048 20.1601 39.8048H24.5574C25.1522 39.8048 25.6273 39.5655 25.8652 38.8521L30.5013 28.5547Z"/>
<path fill="black" d="M69.8314 37.4444H78.2616C78.7558 37.4444 78.9884 37.6188 78.9884 38.1421V39.9735C78.9884 40.4967 78.7558 40.7002 78.2616 40.7002H66.6337C66.1105 40.7002 65.8779 40.4967 65.8779 39.9735V34.6246C65.8779 32.9967 66.8953 32.4444 67.8547 32.0374L73.814 29.5374C74.3372 29.3339 74.9767 28.9269 74.9767 27.8514V26.0781C74.9767 24.6246 74.0465 23.8979 72.1279 23.8979C70.2384 23.8979 69.3081 24.6246 69.3081 26.0781V27.2118C69.3081 27.7351 69.1337 27.9386 68.6395 27.9386H66.2267C65.7035 27.9386 65.5 27.7351 65.5 27.2118V25.4386C65.5 22.9967 67.0698 20.7002 72.1279 20.7002C77.186 20.7002 78.8721 22.9967 78.8721 25.4386V27.7351C78.8721 30.5548 77.3023 31.6595 76.1105 32.1537L71.1977 34.1886C70.3547 34.5374 69.8314 34.8281 69.8314 35.8165V37.4444Z"/>
<path fill="black" d="M82.9861 22.0374L90.1373 20.7293C90.4571 20.6711 90.835 20.7583 90.835 21.4269V37.4444H94.6431C95.1664 37.4444 95.3699 37.6188 95.3699 38.1421V39.9735C95.3699 40.4967 95.1664 40.7002 94.6431 40.7002H82.9571C82.4629 40.7002 82.2303 40.4967 82.2303 39.9735V38.1421C82.2303 37.6188 82.4629 37.4444 82.9571 37.4444H86.9106V24.6537L82.9861 25.3514C82.521 25.4386 82.2303 25.2351 82.2303 24.7409V22.8223C82.2303 22.3281 82.521 22.1246 82.9861 22.0374Z"/>
<path fill="black" d="M102.478 37.4444H110.908C111.403 37.4444 111.635 37.6188 111.635 38.1421V39.9735C111.635 40.4967 111.403 40.7002 110.908 40.7002H99.2804C98.7572 40.7002 98.5246 40.4967 98.5246 39.9735V34.6246C98.5246 32.9967 99.5421 32.4444 100.501 32.0374L106.461 29.5374C106.984 29.3339 107.623 28.9269 107.623 27.8514V26.0781C107.623 24.6246 106.693 23.8979 104.775 23.8979C102.885 23.8979 101.955 24.6246 101.955 26.0781V27.2118C101.955 27.7351 101.78 27.9386 101.286 27.9386H98.8735C98.3502 27.9386 98.1467 27.7351 98.1467 27.2118V25.4386C98.1467 22.9967 99.7165 20.7002 104.775 20.7002C109.833 20.7002 111.519 22.9967 111.519 25.4386V27.7351C111.519 30.5548 109.949 31.6595 108.757 32.1537L103.844 34.1886C103.001 34.5374 102.478 34.8281 102.478 35.8165V37.4444Z"/>
<path fill="#00A7E1" d="M124.424 21.456V39.7118C124.424 40.2351 124.25 40.4676 123.727 40.4676H121.198C120.674 40.4676 120.5 40.2351 120.5 39.7118V21.456C120.5 20.9328 120.674 20.7002 121.198 20.7002H123.727C124.25 20.7002 124.424 20.9328 124.424 21.456Z"/>
<path fill="#00A7E1" d="M128.884 25.9909H131.123C131.646 25.9909 131.791 26.1944 131.82 26.6886L131.878 27.3862C132.692 26.7176 134.175 25.7583 136.529 25.7583C139.204 25.7583 140.745 27.3862 140.745 29.6537V39.7118C140.745 40.2351 140.541 40.4676 140.018 40.4676H137.663C137.14 40.4676 136.907 40.2351 136.907 39.7118V30.613C136.907 29.5665 136.588 29.0723 135.338 29.0723C133.884 29.0723 132.576 29.9153 131.966 30.3804V39.7118C131.966 40.2351 131.791 40.4676 131.297 40.4676H128.884C128.361 40.4676 128.157 40.2351 128.157 39.7118V26.6886C128.157 26.1944 128.361 25.9909 128.884 25.9909Z"/>
<path fill="#00A7E1" d="M150.452 40.4676H147.69C147.167 40.4676 147.109 40.2932 146.934 39.799L142.603 26.7176C142.428 26.2235 142.777 25.9909 143.271 25.9909H145.771C146.295 25.9909 146.44 26.2816 146.585 26.7176L148.707 33.3165C148.969 34.1595 149.143 35.7002 149.173 35.9909C149.202 35.7583 149.405 34.363 149.754 33.3455L152.05 26.7176C152.196 26.2816 152.341 25.9909 152.864 25.9909H155.074C155.597 25.9909 155.946 26.2235 155.771 26.7176L151.178 39.799C151.004 40.2932 150.946 40.4676 150.452 40.4676Z"/>
<path fill="#00A7E1" d="M169.136 30.0316V33.4037C169.136 33.8688 168.962 34.0723 168.497 34.0723H161.055V36.2235C161.055 37.2409 161.607 37.8223 163.322 37.8223C165.037 37.8223 165.59 37.2409 165.59 36.2235V36.0781C165.59 35.5839 165.793 35.3514 166.316 35.3514H168.351C168.846 35.3514 169.078 35.5839 169.078 36.0781V36.3979C169.078 39.0141 167.566 40.7002 163.293 40.7002C159.02 40.7002 157.334 39.0141 157.334 36.3979V30.0316C157.334 27.4444 159.049 25.7583 163.322 25.7583C167.566 25.7583 169.136 27.4444 169.136 30.0316ZM161.055 30.2351V31.5141H165.59V30.2351C165.59 29.2176 164.95 28.6362 163.322 28.6362C161.665 28.6362 161.055 29.2176 161.055 30.2351Z"/>
<path fill="#00A7E1" d="M179.544 30.1769V29.6246C179.544 28.7235 178.672 28.4328 177.422 28.4328C176.172 28.4328 175.329 28.7235 175.329 29.6246V29.9444C175.329 30.5258 175.823 30.8165 176.23 30.9618L180.416 32.4444C182.218 33.0839 183.207 34.0723 183.207 35.4676V36.9502C183.207 38.8107 181.55 40.7002 177.335 40.7002C173.119 40.7002 171.521 38.8107 171.521 36.9502V36.2816C171.521 35.8165 171.695 35.613 172.189 35.613H174.34C174.835 35.613 175.009 35.8165 175.009 36.2816V36.7758C175.009 37.6769 176.026 37.9967 177.335 37.9967C178.643 37.9967 179.689 37.6769 179.689 36.7758V36.2816C179.689 35.7874 179.311 35.5258 178.381 35.1769L174.166 33.6362C173.09 33.2293 171.869 32.0083 171.869 30.5548V29.6246C171.869 27.7641 173.236 25.7583 177.451 25.7583C181.637 25.7583 183.003 27.7641 183.003 29.6246V30.1769C183.003 30.6711 182.858 30.8455 182.335 30.8455H180.183C179.718 30.8455 179.544 30.6711 179.544 30.1769Z"/>
<path fill="#00A7E1" d="M190.523 26.049H193.168C193.662 26.049 193.895 26.2235 193.895 26.7176V28.3455C193.895 28.8688 193.662 29.0723 193.168 29.0723H190.523V35.7583C190.523 36.8339 191.221 37.3281 192.849 37.3281H193.488C194.011 37.3281 194.215 37.5316 194.215 38.0548V39.7409C194.215 40.2641 194.011 40.4676 193.488 40.4676H192.267C187.994 40.4676 186.686 39.0141 186.686 36.1653V29.0723H185.261C184.767 29.0723 184.564 28.8688 184.564 28.3455V26.8921C184.564 26.3979 184.767 26.2525 185.261 26.1944L186.599 26.049H186.686V23.2583C186.686 22.7351 186.889 22.5316 187.412 22.5316H189.825C190.349 22.5316 190.523 22.7351 190.523 23.2583V26.049Z"/>
</svg>